HIERARCHY
ROOT joint_Root
{
	OFFSET 0.0 0.0 0.0
	CHANNELS 6 Xposition Yposition Zposition Zrotation Xrotation Yrotation 
	JOINT Hips
	{
		OFFSET -0.726466 93.3139 -2.00062
		CHANNELS 6 Xposition Yposition Zposition Zrotation Xrotation Yrotation 
		JOINT Spine
		{
			OFFSET 15.7357 0.0 0.0
			CHANNELS 6 Xposition Yposition Zposition Zrotation Xrotation Yrotation 
			JOINT Chest
			{
				OFFSET 8.98455 -0.406207 0.0
				CHANNELS 6 Xposition Yposition Zposition Zrotation Xrotation Yrotation 
				JOINT Neck
				{
					OFFSET 16.3773 0.0 0.0
					CHANNELS 6 Xposition Yposition Zposition Zrotation Xrotation Yrotation 
					JOINT Head
					{
						OFFSET 6.45672 0.0 0.0
						CHANNELS 6 Xposition Yposition Zposition Zrotation Xrotation Yrotation 
						End Site
						{
							OFFSET 0.0 0.0 0.0
						}
					}
				}
				JOINT Shoulder_L
				{
					OFFSET 12.9942 -0.242716 4.98039
					CHANNELS 6 Xposition Yposition Zposition Zrotation Xrotation Yrotation 
					JOINT UpperArm_L
					{
						OFFSET 5.34809 0.0 0.0
						CHANNELS 6 Xposition Yposition Zposition Zrotation Xrotation Yrotation 
						JOINT LowerArm_L
						{
							OFFSET 24.3286 1.87007e-05 0.0
							CHANNELS 6 Xposition Yposition Zposition Zrotation Xrotation Yrotation 
							JOINT Hand_L
							{
								OFFSET 22.2916 0.0 0.0
								CHANNELS 6 Xposition Yposition Zposition Zrotation Xrotation Yrotation 
								End Site
								{
									OFFSET 0.0 0.0 0.0
								}
							}
						}
					}
				}
				JOINT Shoulder_R
				{
					OFFSET 12.9945 -0.242716 -4.98039
					CHANNELS 6 Xposition Yposition Zposition Zrotation Xrotation Yrotation 
					JOINT UpperArm_R
					{
						OFFSET -5.34813 0.0 0.0
						CHANNELS 6 Xposition Yposition Zposition Zrotation Xrotation Yrotation 
						JOINT LowerArm_R
						{
							OFFSET -24.3289 0.000322201 0.0
							CHANNELS 6 Xposition Yposition Zposition Zrotation Xrotation Yrotation 
							JOINT Hand_R
							{
								OFFSET -22.2915 -0.000108084 0.0
								CHANNELS 6 Xposition Yposition Zposition Zrotation Xrotation Yrotation 
								End Site
								{
									OFFSET 0.0 0.0 0.0
								}
							}
						}
					}
				}
			}
		}
		JOINT UpperLeg_L
		{
			OFFSET -2.19248 -6.46944 0.0
			CHANNELS 6 Xposition Yposition Zposition Zrotation Xrotation Yrotation 
			JOINT LowerLeg_L
			{
				OFFSET 39.0811 0.0 -1.23785e-05
				CHANNELS 6 Xposition Yposition Zposition Zrotation Xrotation Yrotation 
				JOINT Foot_L
				{
					OFFSET 40.9854 0.0 -1.26872e-05
					CHANNELS 6 Xposition Yposition Zposition Zrotation Xrotation Yrotation 
					JOINT Toes_L
					{
						OFFSET 11.7543 0.0 0.0
						CHANNELS 6 Xposition Yposition Zposition Zrotation Xrotation Yrotation 
						End Site
						{
							OFFSET 0.0 0.0 0.0
						}
					}
				}
			}
		}
		JOINT UpperLeg_R
		{
			OFFSET -2.19251 6.46944 0.0
			CHANNELS 6 Xposition Yposition Zposition Zrotation Xrotation Yrotation 
			JOINT LowerLeg_R
			{
				OFFSET -39.0811 -0.00228153 -0.0401928
				CHANNELS 6 Xposition Yposition Zposition Zrotation Xrotation Yrotation 
				JOINT Foot_R
				{
					OFFSET -40.9854 0.0 0.0
					CHANNELS 6 Xposition Yposition Zposition Zrotation Xrotation Yrotation 
					JOINT Toes_R
					{
						OFFSET -11.7543 0.0 0.0
						CHANNELS 6 Xposition Yposition Zposition Zrotation Xrotation Yrotation 
						End Site
						{
							OFFSET 0.0 0.0 0.0
						}
					}
				}
			}
		}
	}
}
MOTION
Frames:	5
Frame Time:	0.0333333
0.000000 0.000000 0.000000 0.000000 0.000000 -0.000000 -3.945200 90.248800 85.529800 -83.026700 -9.146370 173.619000 15.735700 0.000005 -0.000001 50.449600 81.688800 -47.413300 8.984550 -0.406207 -0.000000 5.414510 -10.623900 6.583180 16.377300 -0.000001 -0.000001 -2.118210 -2.033220 -1.161370 6.456720 -0.000001 -0.000000 -1.433920 3.882310 -1.289770 12.994200 -0.242716 4.980390 -87.934900 -6.656160 -72.718900 5.348090 -0.000007 -0.000001 -71.342300 32.214400 -22.130300 24.328600 0.000019 0.000005 4.849430 -1.832520 -110.641000 22.291600 -0.000001 0.000005 3.256430 5.593490 -10.925400 12.994500 -0.242716 -4.980390 90.067700 -0.148530 -65.544900 -5.348130 -0.000001 -0.000004 -67.473500 39.497600 12.452200 -24.328900 0.000322 -0.000009 1.306070 -0.042881 -91.892300 -22.291500 -0.000108 -0.000004 5.766190 5.563440 -9.354720 -2.192480 -6.469440 -0.000000 -173.195000 -3.571240 2.417090 39.081100 -0.000007 -0.000012 0.025981 -0.047974 28.437700 40.985400 -0.000006 -0.000013 6.091360 3.490570 -59.291200 11.754300 -0.000000 0.000003 -0.160807 -0.575653 -40.992900 -2.192510 6.469440 -0.000001 -167.528000 6.500860 135.694000 -39.081100 -0.002282 -0.040193 -0.135231 0.016666 83.107500 -40.985400 0.000008 0.000006 10.392500 -16.807500 -57.547500 -11.754300 -0.000006 -0.000006 -0.022157 -0.178954 -23.888800
0.000000 0.000000 0.000000 0.000000 0.000000 -0.000000 -3.821130 93.012300 75.480200 -83.359500 -9.339010 173.295000 15.735700 0.000005 -0.000001 46.235900 81.447100 -42.977600 8.984550 -0.406207 -0.000000 5.022500 -11.887700 7.051090 16.377300 -0.000001 -0.000001 -1.957250 -1.907650 -1.159770 6.456720 -0.000001 -0.000000 -1.308090 4.334920 -1.441840 12.994200 -0.242716 4.980390 -87.601200 -7.926600 -73.102500 5.348090 -0.000007 -0.000001 -71.595300 34.845700 -22.988800 24.328600 0.000019 0.000005 6.148840 -2.574500 -112.632000 22.291600 -0.000001 0.000005 -0.013781 5.556780 -9.004910 12.994500 -0.242716 -4.980390 90.632900 -1.350180 -64.883600 -5.348130 -0.000001 -0.000004 -68.658000 39.579200 14.452700 -24.328900 0.000322 -0.000009 0.936150 -0.060736 -93.726800 -22.291500 -0.000108 -0.000004 5.565770 5.551410 -8.775010 -2.192480 -6.469440 -0.000000 -169.388000 -10.053700 7.260140 39.081100 -0.000007 -0.000012 0.027887 -0.064399 23.413800 40.985400 -0.000006 -0.000013 1.354900 10.304400 -39.800500 11.754300 -0.000000 0.000003 -0.083599 -0.401904 -33.278600 -2.192510 6.469440 -0.000001 -168.343000 4.442380 139.216000 -39.081100 -0.002282 -0.040193 -0.010445 0.007480 61.255100 -40.985400 0.000008 0.000006 7.730940 -12.587800 -61.654300 -11.754300 -0.000006 -0.000006 -0.023457 -0.185736 -24.168700
0.000000 0.000000 0.000000 0.000000 0.000000 -0.000000 -4.163880 94.032800 65.302300 -85.240100 -9.206980 172.683000 15.735700 0.000005 -0.000001 42.319100 81.459200 -39.403900 8.984550 -0.406207 -0.000000 4.150430 -12.704300 6.304890 16.377300 -0.000001 -0.000001 -2.093600 -1.861660 -1.325140 6.456720 -0.000001 -0.000000 -0.945775 4.363220 -1.240800 12.994200 -0.242716 4.980390 -87.195500 -9.278760 -73.099900 5.348090 -0.000007 -0.000001 -71.754200 37.746100 -23.140200 24.328600 0.000019 0.000005 6.483790 -2.859930 -113.703000 22.291600 -0.000001 0.000005 0.045938 5.529970 -7.800710 12.994500 -0.242716 -4.980390 91.501000 -3.190310 -64.787200 -5.348130 -0.000001 -0.000004 -71.221000 38.105400 16.675700 -24.328900 0.000322 -0.000009 0.943599 -0.087595 -95.311800 -22.291500 -0.000108 -0.000004 5.761040 5.537430 -8.126670 -2.192480 -6.469440 -0.000000 -169.305000 -11.240600 9.360510 39.081100 -0.000007 -0.000012 0.063919 -0.126270 26.848900 40.985400 -0.000006 -0.000013 1.888760 5.656140 -35.376100 11.754300 -0.000000 0.000003 -0.005306 -0.064407 -19.197600 -2.192510 6.469440 -0.000001 -170.286000 5.344260 144.330000 -39.081100 -0.002282 -0.040193 0.022582 -0.024786 37.904600 -40.985400 0.000008 0.000006 4.755750 -5.767560 -65.277800 -11.754300 -0.000006 -0.000006 -0.026022 -0.198617 -24.701200
0.000000 0.000000 0.000000 0.000000 0.000000 -0.000000 -4.828600 93.479900 54.712900 -89.374000 -8.975680 172.839000 15.735700 0.000005 -0.000001 39.844300 81.510800 -38.241800 8.984550 -0.406207 -0.000000 3.373930 -13.082900 3.599450 16.377300 -0.000001 -0.000001 -2.348400 -1.931990 -1.469320 6.456720 -0.000001 -0.000000 -0.635383 3.971740 -0.506556 12.994200 -0.242716 4.980390 -86.842200 -10.425000 -73.043700 5.348090 -0.000007 -0.000001 -71.664700 40.233300 -22.453500 24.328600 0.000019 0.000005 6.401140 -2.879820 -114.125000 22.291600 -0.000001 0.000005 1.071930 5.533760 -7.961180 12.994500 -0.242716 -4.980390 91.973800 -4.195520 -64.776500 -5.348130 -0.000001 -0.000004 -73.177400 35.773900 18.547100 -24.328900 0.000322 -0.000009 0.893303 -0.107622 -96.887900 -22.291500 -0.000108 -0.000004 5.279110 5.524130 -7.537760 -2.192480 -6.469440 -0.000000 -173.433000 -8.438780 10.348100 39.081100 -0.000007 -0.000012 0.089442 -0.118389 37.070300 40.985400 -0.000006 -0.000013 3.155590 -3.459470 -37.981900 11.754300 -0.000000 0.000003 -0.006404 -0.074470 -19.608000 -2.192510 6.469440 -0.000001 -173.664000 9.622030 149.501000 -39.081100 -0.002282 -0.040193 -0.019314 0.062549 19.894600 -40.985400 0.000008 0.000006 -1.934200 4.410720 -68.282200 -11.754300 -0.000006 -0.000006 -0.028507 -0.210539 -25.194900
0.000000 0.000000 0.000000 0.000000 0.000000 -0.000000 -5.324320 91.950600 43.949900 -91.892100 -7.344800 174.103000 15.735700 0.000005 -0.000001 44.344800 81.968000 -43.641400 8.984550 -0.406207 -0.000000 3.595120 -11.499600 1.770960 16.377300 -0.000001 -0.000001 -2.333240 -2.160370 -1.900550 6.456720 -0.000001 -0.000000 -1.301450 3.251360 -0.124686 12.994200 -0.242716 4.980390 -86.888200 -10.178200 -72.899000 5.348090 -0.000007 -0.000001 -71.163400 41.500700 -21.124100 24.328600 0.000019 0.000005 6.361790 -2.727460 -113.112000 22.291600 -0.000001 0.000005 1.391860 5.561440 -9.254130 12.994500 -0.242716 -4.980390 91.707800 -3.673970 -65.048800 -5.348130 -0.000001 -0.000004 -72.990100 33.531100 18.152900 -24.328900 0.000322 -0.000009 -0.094531 0.013189 -97.781700 -22.291500 -0.000108 -0.000004 5.794070 5.523280 -7.499790 -2.192480 -6.469440 -0.000000 -177.510000 -5.590390 11.225300 39.081100 -0.000007 -0.000012 0.082255 -0.070924 49.229400 40.985400 -0.000006 -0.000013 3.945000 -9.223310 -38.672300 11.754300 -0.000000 0.000003 -0.006877 -0.078611 -19.776900 -2.192510 6.469440 -0.000001 -175.297000 12.199500 151.762000 -39.081100 -0.002282 -0.040193 -0.053134 0.204895 15.406800 -40.985400 0.000008 0.000006 -7.384790 8.645680 -69.395900 -11.754300 -0.000006 -0.000006 -0.029877 -0.216897 -25.458500
